<mxfile host="app.diagrams.net" agent="Mozilla/5.0 (Windows NT 10.0; Win64; x64) AppleWebKit/537.36 (KHTML, like Gecko) Chrome/131.0.0.0 Safari/537.36" version="26.0.1">
  <diagram name="Trang-1" id="jA_AXnLiRbzz0pm_46H4">
    <mxGraphModel dx="1877" dy="557" grid="1" gridSize="10" guides="1" tooltips="1" connect="1" arrows="1" fold="1" page="1" pageScale="1" pageWidth="827" pageHeight="1169" math="0" shadow="0">
      <root>
        <mxCell id="0" />
        <mxCell id="1" parent="0" />
        <mxCell id="JEEnimab8nkdfy5USxq2-3" value="+-------------------+           +--------------------+           +----------------------+&#xa;|   Employee        |           |    Equipment       |           |       Task           |&#xa;+-------------------+           +--------------------+           +----------------------+&#xa;| - employeeID      |           | - equipmentID      |           | - taskID             |&#xa;| - skill           |           | - type             |           | - productType        |&#xa;| - productivity    |           | - capacity         |           | - quantity           |&#xa;| - availability    |           | - status           |           | - deadline           |&#xa;| - salary          |           | - maxOperatingTime |           | - priority           |&#xa;| - overtimeCost    |           | - operatingCost    |           | - requiredSkill      |&#xa;+-------------------+           +--------------------+           | - requiredEquipment  |&#xa;      ^                         |                                +----------------------+&#xa;      |                         |&#xa;      |                         |&#xa;      |                         |&#xa;+-------------------+           +--------------------+&#xa;| ProductionPlan    |-----------|--------------------|&#xa;+-------------------+           +--------------------+&#xa;| - taskList        |                               |&#xa;+-------------------+                               |&#xa;                                                    |&#xa;                                                    |&#xa;                                                +----------------------+&#xa;                                                |     RequiredIn       |&#xa;                                                +----------------------+" style="text;whiteSpace=wrap;" vertex="1" parent="1">
          <mxGeometry x="-10" y="350" width="700" height="470" as="geometry" />
        </mxCell>
        <mxCell id="JEEnimab8nkdfy5USxq2-4" value="+-------------------------+&#xa;           |         Manager         |&#xa;           +-------------------------+&#xa;           | - Manage Employees      |&#xa;           | - Manage Equipment      |&#xa;           | - Plan Production       |&#xa;           | - View Reports          |&#xa;           +-------------------------+&#xa;                   /      |      \&#xa;                  /       |       \&#xa;                 /        |        \&#xa;   +----------------+    /          \    +--------------------+&#xa;   |   Manage       |   /            \   | Manage Equipment   |&#xa;   |   Employees    |  /              \  +--------------------+&#xa;   +----------------+ /                \ |&#xa;                 \   /                  \|                          +-----------------------+&#xa;                  \ /                    \-------------------------&gt;| Equipment System     |&#xa;                  / \                                                  +-----------------------+&#xa;                 /   \                                                 | - Provide Equipment  |&#xa;                /     \                                                +-----------------------+&#xa;   +-------------------------+                                         / |&#xa;   |       Employee          |                                        /  |&#xa;   +-------------------------+                                       /   |&#xa;   | - Perform Task          |&lt;-------------------------------------/    |&#xa;   +-------------------------+                                     /     |&#xa;                                                                /       |&#xa;                                                               /        |&#xa;                                                       +---------------------+&#xa;                                                       |    Production Plan   |&#xa;                                                       +---------------------+&#xa;                                                       | - taskList          |&#xa;                                                       +---------------------+" style="text;whiteSpace=wrap;" vertex="1" parent="1">
          <mxGeometry x="480" y="370" width="410" height="480" as="geometry" />
        </mxCell>
      </root>
    </mxGraphModel>
  </diagram>
</mxfile>
